<?xml version="1.0" standalone="no"?>
<!DOCTYPE svg PUBLIC "-//W3C//DTD SVG 20010904//EN"
 "http://www.w3.org/TR/2001/REC-SVG-20010904/DTD/svg10.dtd">
<svg version="1.0" xmlns="http://www.w3.org/2000/svg"
 width="225.000000pt" height="225.000000pt" viewBox="0 0 225.000000 225.000000"
 preserveAspectRatio="xMidYMid meet">
<metadata>
Created by potrace 1.14, written by Peter Selinger 2001-2017
</metadata>
<g transform="translate(0.000000,225.000000) scale(0.100000,-0.100000)"
fill="#000000" stroke="none">
<path d="M782 2101 c1 -6 161 -285 353 -620 l350 -610 353 -1 c193 0 352 2
352 3 0 2 -159 280 -353 618 l-353 614 -353 3 c-223 1 -352 -1 -349 -7z"/>
<path d="M337 1356 l-336 -595 176 -311 c96 -171 177 -309 179 -308 1 2 156
270 344 597 l341 594 -172 296 c-95 163 -177 302 -184 309 -9 10 -84 -116
-348 -582z"/>
<path d="M715 459 c-93 -165 -171 -304 -173 -310 -2 -5 257 -9 676 -9 l680 0
33 58 c17 31 96 171 175 310 l143 252 -682 0 -682 0 -170 -301z"/>
</g>
</svg>
